#!OML:ASF Y:\EmotionMaleHayes\Project 1\Capture day 1\Session 1\Male1.ASF
:FULLY-SPECIFIED
:DEGREES
920
root 45.6572 16.8469 0.826297 534.518 0.563476 535.939
lowerback 8.41335 1.69574 -9.51842
upperback 3.27566 2.00603 -3.42862
thorax -1.45036 1.20835 1.56476
lowerneck -13.4868 14.3126 14.961
upperneck 31.0065 19.2135 -13.0934
head 16.2989 7.59237 -4.49061
rclavicle -1.18277e-014 -6.12257e-014
rhumerus -50.2506 -8.11735 -84.165
rradius 29.8981
rwrist 2.96188
rhand -14.9498 -28.7765
rfingers 7.12502
rthumb 11.2132 -58.4568
lclavicle -1.18277e-014 -6.12257e-014
lhumerus -24.5176 -27.534 84.2389
lradius 54.3387
lwrist 8.74955
lhand -16.5788 -25.9437
lfingers 7.12502
lthumb 9.64175 3.81565
rfemur -15.2409 0.529362 6.12938
rtibia 59.4792
rfoot -10.647 -6.74337
rtoes 13.7593
lfemur 9.53785 -3.12964 -38.575
ltibia 9.33457
lfoot -13.8632 5.03572
ltoes 18.4381
921
root 45.6667 16.8448 0.682869 534.846 -0.652221 535.793
lowerback 8.20106 2.26886 -9.65934
upperback 3.30332 1.64993 -3.38879
thorax -1.35166 0.542298 1.73211
lowerneck -13.525 14.1419 14.7839
upperneck 30.9677 18.9777 -12.9804
head 16.1971 7.49762 -4.46546
rclavicle 5.26779e-015 -2.54444e-014
rhumerus -51.0818 -9.12396 -83.4686
rradius 29.3588
rwrist 3.57954
rhand -14.4468 -28.7253
rfingers 7.12502
rthumb 11.6983 -58.3787
lclavicle 5.26779e-015 -2.54444e-014
lhumerus -23.2253 -27.5067 84.08
lradius 54.2085
lwrist 7.96532
lhand -16.309 -26.2562
lfingers 7.12502
lthumb 9.90205 3.49095
rfemur -16.3269 0.266716 5.85069
rtibia 57.8188
rfoot -11.0942 -6.78815
rtoes 13.5896
lfemur 10.0866 -3.72034 -38.8465
ltibia 8.98625
lfoot -13.727 4.42142
ltoes 15.3083
922
root 45.6752 16.8475 0.5332 534.993 -1.7509 535.743
lowerback 8.11 1.91401 -10.1116
upperback 3.36227 1.18878 -3.12481
thorax -1.20343 0.311381 2.30421
lowerneck -13.4951 14.2614 14.3606
upperneck 30.785 19.2807 -12.992
head 16.0997 7.58287 -4.3254
rclavicle -4.96962e-015 -3.10104e-014
rhumerus -51.6279 -9.10914 -82.7937
rradius 28.79
rwrist 4.27934
rhand -13.8022 -28.5868
rfingers 7.12502
rthumb 12.3198 -58.2039
lclavicle -4.96962e-015 -3.10104e-014
lhumerus -21.8691 -26.6283 84.0641
lradius 53.7867
lwrist 7.46065
lhand -16.4116 -26.5601
lfingers 7.12502
lthumb 9.80309 3.19171
rfemur -17.0656 0.0720258 5.79859
rtibia 55.8216
rfoot -10.8572 -7.06948
rtoes 5.86
lfemur 10.7816 -3.37568 -38.7289
ltibia 8.72036
lfoot -13.3822 3.3181
ltoes 9.12483
923
root 45.6868 16.8518 0.387471 535.128 -2.94593 535.673
lowerback 8.18232 1.57357 -10.6013
upperback 3.38432 0.71322 -2.89544
thorax -1.17056 0.0762957 2.8583
lowerneck -13.4511 14.3586 14.0822
upperneck 30.5835 19.5246 -13.0388
head 16.0042 7.66113 -4.23706
rclavicle 1.08338e-014 -3.18055e-014
rhumerus -52.2195 -9.09864 -82.1369
rradius 28.3121
rwrist 4.95274
rhand -13.2036 -28.4255
rfingers 7.12502
rthumb 12.8969 -58.007
lclavicle 1.08338e-014 -3.18055e-014
lhumerus -21.0611 -27.7182 83.6686
lradius 54.7454
lwrist 8.44522
lhand -16.9988 -25.9272
lfingers 7.12502
lthumb 9.2365 3.85046
rfemur -17.6551 -0.236015 5.70156
rtibia 53.6431
rfoot -11.1131 -7.61268
rtoes 7.17167
lfemur 11.5734 -3.53089 -38.6955
ltibia 8.24575
lfoot -13.4728 1.77182
ltoes 16.41
924
root 45.7032 16.8506 0.254161 535.407 -4.46909 535.47
lowerback 8.3587 1.2146 -11.1768
upperback 3.36077 0.1762 -2.77222
thorax -1.22257 -0.187518 3.35456
lowerneck -13.4442 14.366 13.8819
upperneck 30.3457 19.6186 -13.1066
head 15.8855 7.68899 -4.20158
rclavicle 7.95139e-015 1.59028e-014
rhumerus -52.8255 -9.06646 -81.758
rradius 27.9581
rwrist 5.3583
rhand -12.8264 -28.413
rfingers 7.12502
rthumb 13.2605 -57.9712
lclavicle 7.95139e-015 1.59028e-014
lhumerus -20.1287 -27.2638 83.4064
lradius 55.0969
lwrist 7.74707
lhand -16.7499 -26.0978
lfingers 7.12502
lthumb 9.47668 3.66916
rfemur -18.2349 -0.737272 5.36659
rtibia 51.3907
rfoot -11.7052 -7.97455
rtoes 9.92852
lfemur 12.0515 -3.50994 -38.7455
ltibia 8.23094
lfoot -13.5658 0.206332
ltoes 19.0199
925
root 45.7137 16.8522 0.100943 535.568 -5.49594 535.05
lowerback 8.348 1.03163 -11.9535
upperback 3.41216 -0.129631 -2.71382
thorax -1.11293 -0.356017 3.87206
lowerneck -13.4969 14.3747 13.5518
upperneck 30.1345 19.6857 -12.9785
head 15.7384 7.71541 -4.06568
rclavicle -1.09332e-015 2.94201e-014
rhumerus -53.3986 -9.02191 -81.4721
rradius 27.628
rwrist 5.99917
rhand -12.5874 -28.4254
rfingers 7.12502
rthumb 13.4909 -57.9685
lclavicle -1.09332e-015 2.94201e-014
lhumerus -18.7086 -25.8396 83.3923
lradius 54.351
lwrist 6.48174
lhand -16.328 -26.9114
lfingers 7.12502
lthumb 9.88373 2.83657
rfemur -18.6303 -0.7752 4.91477
rtibia 48.9026
rfoot -11.8438 -8.24625
rtoes 8.96336
lfemur 12.7666 -3.50332 -39.0404
ltibia 7.91204
lfoot -13.4735 -1.33107
ltoes 16.8856
926
root 45.7142 16.8434 -0.0461763 535.593 -6.53953 535.44
lowerback 8.49612 0.699682 -11.8228
upperback 3.45986 -0.540385 -2.41369
thorax -1.07683 -0.55094 4.15355
lowerneck -13.5299 14.4355 13.1613
upperneck 29.931 19.8384 -12.8292
head 15.5953 7.77227 -3.89506
rclavicle -1.12313e-014 8.74653e-015
rhumerus -53.9109 -8.86826 -81.0584
rradius 27.3132
rwrist 6.92432
rhand -12.2972 -28.2356
rfingers 7.12502
rthumb 13.7706 -57.7599
lclavicle -1.12313e-014 8.74653e-015
lhumerus -17.8848 -26.177 83.1492
lradius 54.7556
lwrist 6.9247
lhand -16.5436 -26.8667
lfingers 7.12502
lthumb 9.67574 2.89105
rfemur -18.8447 -0.867134 5.35954
rtibia 46.1844
rfoot -11.4692 -8.49999
rtoes 4.51831
lfemur 13.6865 -4.73946 -39.0696
ltibia 7.65785
lfoot -14.1824 -0.555399
ltoes 11.9712
927
root 45.7208 16.8363 -0.197388 536.019 -7.727 534.966
lowerback 8.27432 0.388398 -12.7135
upperback 3.47265 -0.978721 -2.27538
thorax -0.845141 -0.787051 4.82546
lowerneck -13.6221 14.4823 12.8678
upperneck 29.7236 20.0053 -12.8857
head 15.514 7.81532 -3.8212
rclavicle 5.36719e-015 -7.95139e-015
rhumerus -54.2965 -8.61759 -80.6237
rradius 27.0762
rwrist 7.58131
rhand -11.7903 -28.02
rfingers 7.12502
rthumb 14.2591 -57.5105
lclavicle 5.36719e-015 -7.95139e-015
lhumerus -16.9678 -26.5914 82.6502
lradius 55.1999
lwrist 7.56829
lhand -16.6301 -26.9081
lfingers 7.12502
lthumb 9.59227 2.85353
rfemur -19.2862 -1.23242 4.70084
rtibia 43.3343
rfoot -11.4396 -8.31679
rtoes 4.89297
lfemur 14.2864 -6.12239 -40.0753
ltibia 7.38925
lfoot -14.7737 0.0981107
ltoes 10.5775
928
root 45.7295 16.8271 -0.347514 536.29 -8.70708 534.784
lowerback 8.18406 0.275612 -13.2654
upperback 3.49102 -1.14495 -2.14189
thorax -0.726367 -0.880277 5.28247
lowerneck -13.7599 14.3843 12.6668
upperneck 29.5784 19.8957 -12.8044
head 15.4146 7.77225 -3.76675
rclavicle 9.44227e-015 4.13472e-014
rhumerus -54.7679 -8.7101 -80.1384
rradius 26.8828
rwrist 8.15584
rhand -11.126 -27.7572
rfingers 7.12502
rthumb 14.8991 -57.2014
lclavicle 9.44227e-015 4.13472e-014
lhumerus -15.8102 -25.8281 82.8638
lradius 54.8552
lwrist 6.82438
lhand -16.5031 -27.2695
lfingers 7.12502
lthumb 9.71475 2.4865
rfemur -19.6174 -1.34252 4.51316
rtibia 40.3856
rfoot -11.7348 -8.24172
rtoes 2.63619
lfemur 14.6903 -5.40992 -39.6728
ltibia 7.25964
lfoot -14.5461 -1.75946
ltoes 12.7969
929
root 45.739 16.8139 -0.496075 536.478 -9.62776 534.964
lowerback 8.20778 0.257858 -13.3223
upperback 3.43947 -1.16551 -2.06878
thorax -0.785825 -0.879404 5.3942
lowerneck -13.7496 14.1734 12.7326
upperneck 29.4335 19.522 -12.6052
head 15.2551 7.67693 -3.77126
rclavicle 8.84592e-015 5.56597e-015
rhumerus -55.4993 -8.95963 -79.9099
rradius 26.8337
rwrist 8.51438
rhand -10.689 -27.4997
rfingers 7.12502
rthumb 15.3201 -56.9122
lclavicle 8.84592e-015 5.56597e-015
lhumerus -14.9862 -27.8501 82.3354
lradius 55.2592
lwrist 8.18073
lhand -17.2479 -26.8223
lfingers 7.12502
lthumb 8.99609 2.96593
rfemur -19.845 -1.35731 4.78372
rtibia 37.301
rfoot -11.8207 -8.32114
rtoes 0.208282
lfemur 15.0923 -5.60884 -39.2675
ltibia 7.39777
lfoot -14.57 -2.86968
ltoes 14.8245
930
root 45.7374 16.7992 -0.651794 536.675 -10.5262 535.292
lowerback 8.07932 0.128917 -13.1024
upperback 3.42002 -1.27474 -1.95602
thorax -0.715815 -0.926002 5.39822
lowerneck -13.7669 14.0644 12.8159
upperneck 29.289 19.3339 -12.541
head 15.1593 7.63711 -3.79087
rclavicle -1.89839e-014 -2.8625e-014
rhumerus -56.1098 -8.96633 -79.7931
rradius 26.8573
rwrist 8.79595
rhand -10.3568 -27.3426
rfingers 7.12502
rthumb 15.64 -56.7304
lclavicle -1.89839e-014 -2.8625e-014
lhumerus -13.8603 -26.6296 82.5687
lradius 54.6117
lwrist 6.60628
lhand -16.9711 -27.0916
lfingers 7.12502
lthumb 9.26325 2.68486
rfemur -19.9821 -1.39035 5.11776
rtibia 34.0901
rfoot -11.8946 -7.91023
rtoes -0.482852
lfemur 15.761 -6.36937 -39.0001
ltibia 7.09783
lfoot -14.7139 -3.35841
ltoes 16.6981
931
root 45.7385 16.7874 -0.806259 536.824 -11.4387 535.479
lowerback 8.04608 0.00812347 -13.0559
upperback 3.44054 -1.40816 -1.84219
thorax -0.647055 -0.99187 5.50195
lowerneck -13.9929 14.004 12.7459
upperneck 29.2606 19.2289 -12.3956
head 15.146 7.60824 -3.72679
rclavicle 1.43125e-014 -7.15625e-015
rhumerus -56.5544 -8.91567 -79.6333
rradius 26.8709
rwrist 9.04919
rhand -9.70084 -26.9594
rfingers 7.12502
rthumb 16.2717 -56.2966
lclavicle 1.43125e-014 -7.15625e-015
lhumerus -13.1563 -28.1382 82.071
lradius 55.1798
lwrist 7.76283
lhand -17.5926 -26.5919
lfingers 7.12502
lthumb 8.6635 3.21035
rfemur -19.9987 -1.47044 5.28981
rtibia 30.8496
rfoot -11.9016 -6.99855
rtoes -0.134771
lfemur 16.2024 -6.06616 -38.3343
ltibia 7.12397
lfoot -14.8088 -4.98685
ltoes 18.3626
932
root 45.7398 16.7671 -0.960495 537.189 -12.1544 535.432
lowerback 7.82937 -0.0261097 -13.1612
upperback 3.38695 -1.42226 -1.86349
thorax -0.577112 -0.997756 5.53429
lowerneck -14.1795 13.8709 12.618
upperneck 29.2 18.9803 -12.0852
head 15.0527 7.5415 -3.61916
rclavicle 6.85807e-015 6.20208e-014
rhumerus -57.0161 -8.91696 -79.636
rradius 26.9131
rwrist 9.11259
rhand -9.20507 -26.588
rfingers 7.12502
rthumb 16.749 -55.8855
lclavicle 6.85807e-015 6.20208e-014
lhumerus -12.3347 -28.3884 81.8329
lradius 55.0814
lwrist 7.66259
lhand -17.864 -26.852
lfingers 7.12502
lthumb 8.40161 2.96087
rfemur -20.3223 -1.37781 5.28661
rtibia 27.7073
rfoot -11.8409 -5.86278
rtoes 0.288454
lfemur 16.7685 -7.4962 -38.9341
ltibia 6.90991
lfoot -15.1053 -4.20423
ltoes 17.039
